<?xml version="1.0" standalone="no"?>
<!DOCTYPE svg PUBLIC "-//W3C//DTD SVG 20010904//EN"
 "http://www.w3.org/TR/2001/REC-SVG-20010904/DTD/svg10.dtd">
<svg version="1.0" xmlns="http://www.w3.org/2000/svg"
 width="5726.000000pt" height="1728.000000pt" viewBox="0 0 5726.000000 1728.000000"
 preserveAspectRatio="xMidYMid meet">

<g transform="translate(0.000000,1728.000000) scale(0.100000,-0.100000)"
fill="#EE2927" stroke="none">
<path d="M8100 17270 c-476 -59 -924 -293 -1231 -643 -521 -594 -627 -1434
-271 -2143 334 -666 1046 -1083 1792 -1051 491 22 939 218 1284 563 288 289
471 649 542 1069 24 137 24 443 0 580 -72 426 -251 778 -547 1074 -279 278
-637 463 -1029 532 -132 24 -420 33 -540 19z"/>
<path d="M11555 15175 c-186 -41 -324 -145 -406 -307 -42 -84 -60 -161 -60
-263 -1 -227 121 -416 342 -530 343 -176 699 -400 1009 -635 130 -99 189 -131
281 -155 363 -95 722 183 722 560 0 135 -41 252 -127 364 -71 93 -543 432
-896 643 -154 93 -445 252 -515 284 -63 27 -187 54 -247 53 -24 0 -70 -7 -103
-14z"/>
<path d="M4770 15144 c-218 -58 -379 -202 -445 -398 -104 -311 65 -640 380
-738 103 -33 244 -31 345 4 227 79 376 234 425 439 71 303 -118 615 -421 693
-76 20 -211 20 -284 0z"/>
<path d="M20115 15145 c-57 -20 -85 -56 -85 -109 0 -45 1248 -5088 1275 -5153
26 -62 62 -100 122 -130 l58 -28 377 -3 c321 -3 387 -1 440 13 80 20 125 56
164 131 21 40 159 493 425 1396 217 735 397 1334 400 1330 4 -4 186 -608 404
-1342 219 -734 408 -1356 421 -1381 28 -56 90 -114 141 -130 54 -18 723 -25
816 -9 88 15 152 58 185 122 25 49 1301 5128 1302 5181 0 41 -26 84 -63 104
-29 17 -75 18 -572 18 -417 0 -548 -3 -577 -13 -43 -15 -85 -55 -102 -97 -7
-16 -156 -708 -331 -1537 -176 -829 -322 -1502 -326 -1495 -4 6 -188 586 -409
1287 -221 701 -413 1296 -426 1321 -28 56 -71 95 -122 109 -50 13 -635 13
-685 -1 -54 -15 -100 -60 -130 -126 -14 -32 -204 -631 -423 -1332 -303 -971
-400 -1268 -406 -1250 -4 13 -149 688 -323 1499 -173 811 -322 1494 -331 1517
-21 57 -70 98 -134 112 -33 7 -223 11 -548 11 -402 -1 -505 -4 -537 -15z"/>
<path d="M27440 15144 c-94 -25 -140 -60 -180 -138 l-35 -69 0 -2501 0 -2501
28 -57 c33 -68 79 -108 150 -134 50 -18 119 -19 1797 -22 1815 -3 1820 -3
1901 39 94 48 118 117 126 364 9 315 -20 453 -106 511 -82 54 -75 54 -1378 54
l-1203 0 0 635 0 634 888 3 c825 3 890 4 932 21 59 23 103 68 132 131 21 48
23 66 26 297 3 202 1 258 -12 310 -24 93 -59 139 -131 169 l-60 25 -887 3
-888 3 0 629 0 629 1233 3 c1151 3 1235 4 1285 21 68 23 114 64 143 129 23 52
24 59 24 343 l0 290 -30 60 c-31 62 -68 94 -134 117 -28 10 -419 13 -1801 15
-1526 2 -1772 0 -1820 -13z"/>
<path d="M33952 15142 c-68 -22 -109 -56 -149 -123 -34 -58 -2113 -5006 -2132
-5074 -30 -108 -3 -195 66 -215 27 -8 204 -10 588 -8 l550 3 42 24 c24 14 53
41 67 61 21 32 106 246 326 828 l74 192 974 -2 974 -3 109 -280 c272 -695 280
-717 317 -756 62 -70 65 -70 685 -67 536 3 546 3 574 24 37 27 52 89 41 163
-6 37 -348 864 -1039 2511 -566 1350 -1050 2496 -1074 2546 -52 108 -100 156
-176 178 -80 24 -741 22 -817 -2z m741 -2524 c180 -469 327 -856 327 -860 0
-5 -300 -8 -666 -8 -416 0 -664 4 -662 9 33 95 665 1711 668 1711 3 0 153
-384 333 -852z"/>
<path d="M37990 15153 c-115 -20 -195 -79 -232 -171 l-23 -57 -3 -2464 c-2
-2704 -6 -2536 56 -2626 35 -51 108 -91 192 -105 44 -8 191 -10 450 -8 442 4
460 7 534 82 85 84 80 31 84 984 l3 842 477 -2 476 -3 377 -900 c290 -695 384
-909 410 -938 57 -65 74 -67 639 -67 292 0 509 4 529 10 75 21 111 92 92 181
-6 27 -200 463 -431 969 -231 506 -420 924 -420 929 0 5 38 28 84 51 487 241
773 666 846 1255 15 117 15 421 0 555 -46 424 -200 767 -453 1006 -257 244
-596 386 -1087 457 -140 20 -187 21 -1360 23 -668 1 -1226 0 -1240 -3z m2245
-988 c306 -49 493 -211 566 -490 26 -100 37 -362 20 -474 -45 -290 -200 -473
-472 -560 -153 -49 -203 -53 -766 -58 l-533 -5 0 801 0 801 548 0 c432 0 566
-3 637 -15z"/>
<path d="M3075 13924 c-119 -26 -209 -77 -306 -174 -67 -66 -94 -102 -122
-160 -50 -106 -61 -151 -60 -265 0 -170 57 -303 182 -423 62 -60 184 -124 269
-141 129 -27 269 -8 390 51 78 39 201 151 254 232 106 165 118 398 28 575
-116 231 -386 360 -635 305z"/>
<path d="M14210 12854 c-95 -25 -178 -73 -255 -145 -118 -112 -178 -250 -179
-409 -1 -152 32 -240 151 -411 200 -288 370 -578 542 -929 108 -221 119 -238
185 -305 82 -82 161 -127 272 -155 306 -79 618 109 699 420 24 91 16 252 -15
335 -66 174 -318 653 -493 935 -311 502 -418 615 -628 665 -80 18 -207 18
-279 -1z"/>
<path d="M1770 12265 c-316 -71 -536 -414 -466 -728 33 -149 117 -273 241
-355 170 -114 380 -132 566 -49 207 93 359 334 359 568 0 192 -104 381 -266
485 -120 77 -300 109 -434 79z"/>
<path d="M962 10300 c-213 -57 -365 -215 -421 -437 -56 -220 -5 -421 148 -574
126 -125 257 -175 436 -166 266 14 461 175 536 442 106 375 -147 733 -531 751
-74 3 -111 0 -168 -16z"/>
<path d="M15510 9555 c-245 -67 -429 -302 -430 -547 0 -31 9 -132 20 -225 37
-325 50 -653 41 -1098 -4 -207 -4 -211 23 -288 46 -135 116 -229 225 -301 234
-156 539 -127 735 70 69 68 125 166 150 259 26 98 39 509 27 835 -16 412 -54
786 -91 910 -51 167 -182 305 -355 370 -78 30 -262 38 -345 15z"/>
<path d="M785 8205 c-220 -48 -383 -209 -441 -435 -24 -94 -15 -271 18 -361
91 -246 294 -391 548 -391 256 0 466 153 552 401 32 93 33 284 1 386 -91 289
-387 464 -678 400z"/>
<path d="M26645 7670 c-560 -45 -1017 -187 -1381 -429 -615 -408 -959 -1037
-1066 -1946 -17 -148 -17 -762 0 -910 85 -726 316 -1258 722 -1665 399 -401
917 -624 1630 -702 178 -20 701 -16 880 6 194 23 378 58 531 100 985 271 1601
1016 1753 2121 42 305 47 814 11 1105 -93 759 -384 1351 -856 1741 -381 315
-827 492 -1429 564 -159 19 -632 28 -795 15z m645 -969 c442 -76 757 -319 950
-733 133 -286 200 -662 200 -1128 0 -904 -256 -1480 -774 -1742 -324 -164
-831 -193 -1221 -71 -414 130 -710 458 -848 939 -78 270 -101 472 -101 874 0
341 10 461 55 685 73 358 206 632 409 835 203 205 472 324 810 360 129 13 388
4 520 -19z"/>
<path d="M20414 7546 c-64 -16 -137 -58 -163 -94 -11 -16 -28 -48 -38 -73 -17
-42 -18 -150 -18 -2544 l0 -2500 24 -53 c28 -62 84 -114 150 -138 40 -16 94
-19 435 -22 437 -4 494 1 577 51 68 41 105 108 119 217 5 43 10 478 10 1017
l0 942 883 3 882 3 57 23 c71 29 112 74 135 150 15 48 18 96 18 317 0 179 -4
273 -12 301 -25 81 -81 139 -162 166 -27 9 -255 13 -918 16 l-883 3 0 624 0
624 1233 3 c1149 3 1236 5 1285 21 71 24 116 67 144 135 21 53 23 75 26 309 3
206 1 263 -12 315 -24 92 -59 138 -131 168 l-60 25 -1765 2 c-1383 1 -1776 -1
-1816 -11z"/>
<path d="M30670 7553 c-115 -20 -195 -79 -232 -171 l-23 -57 -3 -2464 c-2
-2704 -6 -2536 56 -2626 35 -51 108 -91 192 -105 44 -8 191 -10 450 -8 442 4
460 7 534 82 85 84 80 31 84 984 l3 842 477 -2 476 -3 377 -900 c290 -695 384
-909 410 -938 57 -65 74 -67 639 -67 292 0 509 4 529 10 75 21 111 92 92 181
-6 27 -200 463 -431 969 -231 506 -420 924 -420 929 0 5 38 28 84 51 487 241
773 665 846 1255 15 117 15 421 0 555 -46 424 -200 767 -453 1006 -257 244
-596 386 -1087 457 -140 20 -187 21 -1360 23 -668 1 -1226 0 -1240 -3z m2245
-988 c306 -49 493 -211 566 -490 26 -100 37 -362 20 -474 -45 -290 -200 -473
-472 -560 -153 -49 -203 -53 -766 -58 l-533 -5 0 801 0 801 548 0 c432 0 566
-3 637 -15z"/>
<path d="M35172 7547 c-47 -18 -80 -52 -88 -92 -4 -25 149 -656 626 -2576 347
-1398 640 -2566 651 -2595 25 -66 89 -126 156 -145 37 -11 136 -14 443 -14
l395 0 58 28 c62 31 106 83 133 159 8 24 188 630 400 1348 211 718 388 1314
393 1325 l8 20 6 -20 c3 -11 184 -618 402 -1350 247 -829 407 -1349 424 -1380
34 -62 101 -109 175 -125 82 -17 778 -8 829 10 62 22 123 83 147 147 11 30
306 1199 656 2596 448 1793 633 2549 629 2569 -11 50 -50 86 -108 98 -36 8
-208 10 -567 8 l-515 -3 -45 -25 c-28 -16 -53 -40 -67 -65 -15 -28 -114 -477
-337 -1535 -174 -822 -320 -1503 -324 -1512 -4 -12 -145 420 -405 1250 -220
697 -414 1299 -433 1339 -62 130 -74 133 -469 133 -386 0 -403 -4 -462 -117
-17 -33 -200 -601 -429 -1335 -219 -703 -401 -1278 -404 -1278 -3 0 -151 678
-329 1508 -227 1062 -329 1519 -344 1547 -14 25 -39 49 -67 65 l-45 25 -530 2
c-399 1 -538 -1 -563 -10z"/>
<path d="M43597 7549 c-21 -5 -50 -15 -66 -23 -35 -19 -95 -84 -119 -133 -11
-21 -491 -1161 -1067 -2533 -731 -1740 -1051 -2514 -1058 -2556 -13 -74 2
-125 46 -158 28 -21 37 -21 565 -24 562 -3 616 0 666 39 46 36 75 102 260 586
l182 478 974 2 975 3 164 -423 c210 -540 225 -575 262 -620 54 -66 63 -67 665
-67 353 0 542 4 561 11 70 26 95 90 74 189 -10 46 -2070 4969 -2123 5074 -34
68 -76 113 -126 138 -46 23 -51 23 -422 25 -206 1 -392 -3 -413 -8z m716
-2519 c174 -454 320 -837 326 -852 l11 -28 -665 0 c-467 0 -665 3 -665 11 0 6
144 380 319 832 176 452 325 835 331 851 6 16 14 25 19 20 4 -5 150 -380 324
-834z"/>
<path d="M47568 7542 c-39 -11 -84 -31 -105 -48 -48 -38 -91 -123 -104 -205
-6 -41 -9 -931 -7 -2494 3 -2318 4 -2432 21 -2483 25 -73 84 -135 155 -164 56
-23 62 -23 482 -23 390 0 429 2 479 19 69 24 122 72 152 139 l24 52 3 848 2
847 478 0 478 0 380 -907 c420 -1006 402 -971 502 -992 35 -7 221 -11 555 -11
476 0 504 1 545 20 67 30 91 114 58 207 -7 21 -201 450 -430 952 -230 502
-416 914 -414 916 2 1 36 19 76 39 359 180 611 452 748 808 41 105 87 287 105
418 17 121 18 493 1 620 -70 529 -281 895 -657 1140 -224 146 -529 246 -906
297 -109 14 -269 17 -1339 19 -1140 3 -1219 2 -1282 -14z m2295 -977 c322 -56
515 -235 570 -530 65 -345 0 -653 -173 -825 -78 -78 -151 -122 -262 -161 -169
-58 -231 -63 -803 -63 l-520 -1 -3 798 -2 797 554 0 c445 0 570 -3 639 -15z"/>
<path d="M52655 7546 c-116 -29 -179 -87 -213 -195 -16 -52 -17 -215 -17
-2506 0 -2355 1 -2453 19 -2517 24 -89 75 -148 154 -180 l57 -23 1060 0 c1089
0 1137 1 1415 41 163 24 370 71 524 121 389 125 686 301 941 558 304 305 495
696 594 1217 104 542 86 1270 -44 1773 -70 270 -212 593 -337 767 -348 481
-870 778 -1578 897 -318 54 -320 54 -1460 57 -836 2 -1076 0 -1115 -10z m2260
-994 c331 -71 562 -205 727 -422 67 -87 160 -281 198 -410 38 -128 75 -340 91
-518 16 -184 7 -718 -15 -877 -58 -416 -175 -695 -373 -891 -163 -161 -377
-265 -663 -320 -70 -14 -177 -17 -612 -21 l-528 -5 0 1747 0 1746 538 -4 c502
-4 544 -5 637 -25z"/>
<path d="M14540 6199 c-716 -81 -1327 -544 -1589 -1204 -166 -422 -181 -881
-40 -1309 260 -793 995 -1326 1829 -1326 649 0 1251 327 1613 875 123 187 230
453 279 695 20 101 23 144 23 355 0 211 -3 254 -23 355 -123 609 -501 1103
-1047 1371 -320 157 -706 226 -1045 188z"/>
<path d="M1711 6179 c-469 -49 -922 -281 -1229 -629 -334 -378 -514 -905 -473
-1386 47 -570 303 -1044 749 -1387 348 -268 840 -414 1270 -378 603 50 1118
346 1444 831 222 330 344 756 324 1135 -35 674 -388 1250 -966 1578 -338 191
-737 275 -1119 236z"/>
<path d="M4139 2345 c-266 -65 -449 -295 -449 -565 0 -146 61 -299 158 -399
114 -116 631 -419 1052 -616 1430 -669 2984 -903 4548 -684 965 135 1977 483
2832 974 287 165 413 248 487 321 176 176 218 437 107 664 -48 98 -160 211
-255 257 -171 84 -354 84 -519 0 -36 -18 -159 -90 -273 -160 -715 -434 -1515
-732 -2347 -876 -415 -72 -705 -96 -1175 -95 -370 0 -554 11 -855 50 -997 127
-1927 462 -2795 1005 -66 41 -142 84 -170 96 -101 43 -239 54 -346 28z"/>
</g>
</svg>
